<?xml version="1.0" encoding="UTF-8"?>
<svg version="1.1" xmlns="http://www.w3.org/2000/svg" width="4500" height="1000">
<path d="M0 0 C1.15159103 -0.01467567 1.15159103 -0.01467567 2.32644653 -0.02964783 C4.87435165 -0.05962766 7.42220396 -0.08099883 9.97021484 -0.09985352 C10.84100048 -0.10642534 11.71178612 -0.11299717 12.6089592 -0.11976814 C17.22171148 -0.15237919 21.83444055 -0.17682114 26.44726562 -0.19628906 C30.25945854 -0.21407572 34.07090805 -0.24885015 37.8828125 -0.29882812 C42.48879569 -0.3591469 47.09409155 -0.3897814 51.7004509 -0.39946175 C53.45230476 -0.40800107 55.20414102 -0.42678168 56.95576859 -0.45620537 C73.51220985 -0.71925487 73.51220985 -0.71925487 79.25259399 4.64265442 C83.65794261 9.93520921 83.9823112 14.4887932 83.80615234 21.08374023 C83.80099609 21.8481543 83.79583984 22.61256836 83.79052734 23.40014648 C83.7418618 26.9831473 83.54427552 30.27365635 82.89624023 33.81567383 C82.22097647 39.15389613 83.56597187 43.85910542 84.91162109 49.00561523 C85.18241989 50.08462097 85.45321869 51.16362671 85.73222351 52.27532959 C86.65557068 55.9246617 87.60338605 59.56698296 88.55615234 63.20874023 C88.89441239 64.50987996 89.23248337 65.81106886 89.57037354 67.11230469 C92.07510423 76.74281449 94.63460233 86.35850493 97.20428085 95.97185516 C98.11486306 99.38035977 99.0231087 102.78948554 99.9314661 106.1985836 C108.20696492 137.25365673 116.55104549 168.29038916 124.90307617 199.32495117 C125.16578717 200.30113655 125.42849817 201.27732193 125.69917011 202.28308868 C125.96255271 203.26176659 126.22593531 204.24044449 126.49729919 205.2487793 C127.03124244 207.23282807 127.56518306 209.21687755 128.09912109 211.20092773 C128.36414492 212.18571106 128.62916874 213.17049438 128.90222359 214.18511963 C134.86557523 236.34552574 140.80620492 258.51200552 146.74453735 280.67912674 C155.89573648 314.8389152 165.06145797 348.99476981 174.24365234 383.14624023 C174.50776917 384.1285965 174.77188599 385.11095276 175.04400635 386.12307739 C175.82081739 389.01231523 176.59766407 391.90154349 177.37451172 394.79077148 C177.6232863 395.71609743 177.87206089 396.64142338 178.1283741 397.59478951 C179.32389853 402.04121749 180.52005963 406.48747209 181.71774292 410.93331909 C183.56278866 417.78370311 185.40770043 424.63399633 187.22345638 431.49221325 C187.72360701 433.38123912 188.22551631 435.26979909 188.72749329 437.15834045 C189.31135929 439.35695307 189.89189345 441.55645479 190.46818542 443.75706482 C190.84394463 445.16895836 190.84394463 445.16895836 191.22729492 446.609375 C191.43808182 447.40996841 191.64886871 448.21056183 191.86604309 449.03541565 C192.57889311 451.28035652 193.31018222 453.20624706 194.55615234 455.20874023 C197.40388095 456.48924944 197.40388095 456.48924944 199.65034771 455.52146149 C202.00596505 453.89890853 202.32524159 452.94108631 203.04902649 450.2052002 C203.27590495 449.37989052 203.50278341 448.55458084 203.73653698 447.70426178 C203.96616288 446.80532951 204.19578878 445.90639725 204.43237305 444.98022461 C204.81274578 443.57106907 204.81274578 443.57106907 205.2008028 442.13344574 C205.73428479 440.14966904 206.2605825 438.16394818 206.78015518 436.17648315 C207.51118515 433.3807139 208.26017962 430.59059118 209.0171814 427.80175781 C210.54445952 422.16163942 212.04117 416.51361556 213.53662109 410.86499023 C214.10347182 408.73009242 214.67051968 406.59524695 215.23774719 404.46044922 C216.44503559 399.91548126 217.65120294 395.37021799 218.85644531 390.82470703 C221.77606727 379.81404196 224.70192587 368.80503329 227.62736893 357.7959137 C228.29798908 355.27211845 228.9685387 352.74830445 229.63901901 350.22447205 C236.14445985 325.73683148 242.68326608 301.25819718 249.23356628 276.78252411 C256.50151777 249.62413524 263.75985138 222.46322546 270.98974609 195.29467773 C271.30062101 194.12655674 271.61149593 192.95843575 271.93179131 191.75491714 C275.03862597 180.08016963 278.14362026 168.40493725 281.24272823 156.72813606 C282.73463976 151.10693232 284.22723679 145.4859108 285.72021484 139.86499023 C286.01032503 138.77265957 286.30043522 137.6803289 286.59933662 136.55489731 C290.38841652 122.29372671 294.2144877 108.04315567 298.08292198 93.80331039 C299.51753587 88.51800885 300.94565947 83.23094864 302.37402821 77.94395638 C303.67255413 73.14171248 304.98302278 68.34295215 306.30337143 63.54666519 C307.09640976 60.65514202 307.87814089 57.76065126 308.65677261 54.86521912 C309.17731176 52.94346319 309.71185223 51.0255162 310.24703979 49.10778809 C312.63127842 40.17950239 313.46456002 32.28626333 311.55615234 23.20874023 C311.08029736 16.92196377 310.85067363 11.57529561 314.55615234 6.20874023 C318.76667866 1.47189813 318.76667866 1.47189813 322.55615234 0.20874023 C325.07478884 0.10261276 327.56616685 0.05150956 330.08520508 0.04760742 C330.84975006 0.04264252 331.61429504 0.03767761 332.40200806 0.03256226 C334.93126321 0.01795648 337.46045569 0.011142 339.98974609 0.00561523 C341.74707542 -0.00013664 343.50440472 -0.00589437 345.26173401 -0.01165771 C348.94622083 -0.02216258 352.63068586 -0.0280089 356.31518555 -0.03149414 C361.03761649 -0.03698392 365.75975984 -0.06102434 370.48210049 -0.08946609 C374.11176905 -0.10808194 377.74136812 -0.11329746 381.3710804 -0.11483002 C383.11221963 -0.11785845 384.85335758 -0.1258934 386.59445 -0.1390152 C389.02909187 -0.15605717 391.46302788 -0.15420045 393.89770508 -0.14770508 C394.61731918 -0.15691986 395.33693329 -0.16613464 396.07835388 -0.17562866 C400.17949282 -0.14132845 402.62696439 0.24392438 405.55615234 3.20874023 C406.91207532 6.20686322 406.92986407 8.96494626 406.55615234 12.20874023 C404.90307946 16.52940462 402.65303506 20.41834783 400.30615234 24.39624023 C399.11310102 26.49370143 397.92038222 28.5913518 396.72802734 30.68920898 C395.92510254 32.06435669 395.92510254 32.06435669 395.10595703 33.46728516 C392.20089439 38.60606089 390.04281043 43.46505223 388.48510742 49.17260742 C388.29832743 49.85032731 388.11154743 50.5280472 387.91910744 51.22630405 C387.29851151 53.48444748 386.68705145 55.74495746 386.07568359 58.00561523 C385.63135334 59.63076424 385.18652095 61.25577602 384.7412262 62.88066101 C383.53031509 67.30653944 382.3278238 71.73466567 381.12718964 76.16334152 C380.10363859 79.93538186 379.07560554 83.70619556 378.04782104 87.47708416 C367.20842115 127.25621104 356.59830905 167.09658573 346.01675034 206.94491386 C342.81571619 218.9985719 339.60982593 231.05093809 336.40380859 243.10327148 C335.94899581 244.81305459 335.94899581 244.81305459 335.48499489 246.55737877 C333.94204254 252.35773944 332.39901437 258.15807992 330.85592651 263.95840454 C329.61371828 268.62778523 328.37163775 273.29719985 327.12966919 277.96664429 C316.0567519 319.5971817 304.94660748 361.21763693 293.80068111 402.82868385 C291.95063781 409.73551766 290.1012091 416.6425159 288.25195312 423.54956055 C285.37385343 434.29917993 282.49478094 445.04853848 279.61508179 455.79772949 C278.51998125 459.88547676 277.42511465 463.97328656 276.33047485 468.06115723 C274.78929976 473.81629165 273.24722039 479.57118328 271.70458984 485.32592773 C271.45645475 486.25179688 271.20831966 487.17766602 270.95266533 488.1315918 C267.96206299 499.28741912 264.95490986 510.43862292 261.92822266 521.5847168 C261.62757967 522.6923469 261.32693668 523.799977 261.0171833 524.94117165 C259.5593301 530.3113497 258.09957177 535.68099749 256.63656616 541.04977417 C256.11182466 542.98051544 255.58713327 544.91127033 255.0625 546.84204102 C254.82262486 547.71960682 254.58274971 548.59717262 254.33560562 549.50133133 C251.8151425 558.79081486 250.38257101 566.00076621 253.93115234 575.33374023 C254.37201172 576.51194336 254.81287109 577.69014648 255.26708984 578.90405273 C256.05315774 580.91924498 256.85936124 582.92692104 257.70068359 584.91967773 C259.25459092 589.07762154 259.0932051 592.76541094 257.55615234 596.89624023 C254.30243572 600.65835008 250.16354783 602.79204972 245.23245049 603.58009338 C242.64309567 603.7258967 240.08091293 603.74952946 237.48754883 603.72631836 C236.51251404 603.73332764 235.53747925 603.74033691 234.53289795 603.74755859 C231.33071876 603.76507087 228.12943326 603.75354047 224.92724609 603.73999023 C222.69100272 603.74268686 220.45476049 603.74657071 218.21852112 603.75158691 C213.54066766 603.75747263 208.86312049 603.7489478 204.18530273 603.73022461 C198.19757715 603.70742276 192.2105683 603.72057237 186.22286892 603.74451447 C181.60824711 603.75898601 176.99379454 603.75436037 172.37916756 603.7440033 C170.17162045 603.74134047 167.96405784 603.7445901 165.75652885 603.75392151 C162.66906032 603.7641106 159.58274429 603.74855273 156.49536133 603.72631836 C155.58867203 603.73441528 154.68198273 603.74251221 153.74781799 603.75085449 C146.97612654 603.66077225 142.73631351 602.08114387 137.61865234 597.45874023 C135.69325373 593.38142552 136.01750016 589.09198179 137.23266602 584.84350586 C138.46494097 581.46548354 139.79076522 578.13277213 141.15576172 574.80639648 C141.47480469 573.97237305 141.79384766 573.13834961 142.12255859 572.27905273 C142.5703064 571.177146 142.5703064 571.177146 143.02709961 570.05297852 C144.44426351 562.43416937 142.06566405 554.46734876 140.06616211 547.13085938 C139.68444634 545.69321307 139.68444634 545.69321307 139.29501915 544.2265234 C138.45323718 541.06362789 137.60046283 537.90380921 136.74755859 534.74389648 C136.14757075 532.49855089 135.54826593 530.25302269 134.94960022 528.00732422 C133.34714231 522.00395974 131.73515521 516.00319265 130.12128448 510.00288773 C128.44018697 503.74609318 126.76795449 497.48693005 125.09472656 491.22802734 C121.53526353 477.91981727 117.96370835 464.6148727 114.38930511 451.31066895 C113.18873488 446.8408005 111.98969864 442.37052134 110.79101562 437.90014648 C107.89325061 427.09397342 104.994079 416.28818366 102.08569336 405.48486328 C101.91182696 404.83902755 101.73796057 404.19319181 101.55882549 403.5277853 C101.38454934 402.88043454 101.21027319 402.23308378 101.03071594 401.56611633 C95.75931811 381.98514526 90.51974691 362.39570742 85.28357697 342.80529022 C83.0778708 334.55297183 80.87186958 326.30073233 78.66552734 318.04858398 C78.41735386 317.12036583 78.16918037 316.19214767 77.91348648 315.2358017 C74.03399599 300.72667606 70.14859738 286.21914015 66.25927734 271.71264648 C65.99548656 270.72874561 65.73169579 269.74484474 65.45991135 268.73112869 C63.03430966 259.68423663 60.60833178 250.63744546 58.18218994 241.59069824 C51.34054061 216.07855054 44.50831813 190.56391714 37.69630432 165.0438385 C34.80151069 154.19999998 31.90252961 143.35732049 28.99243164 132.51757812 C27.8844476 128.38867576 26.77682978 124.2596753 25.66943359 120.13061523 C25.40165541 119.1324774 25.13387722 118.13433956 24.85798454 117.10595512 C21.59803786 104.94702432 18.39549213 92.7757806 15.27962494 80.57915115 C14.05681949 75.80840285 12.81202028 71.04333481 11.57012939 66.27752686 C10.66445833 62.76156641 9.79383236 59.23829055 8.92480469 55.71313477 C5.79385141 43.49035257 1.56749956 33.65483116 -5.67651367 23.28930664 C-12.53040134 13.4591359 -12.53040134 13.4591359 -12.31884766 7.95874023 C-11.53941466 5.50909368 -10.81268408 3.38277455 -9.44384766 1.20874023 C-6.43000454 -0.29818133 -3.30787788 0.02648388 0 0 Z " fill="#FCE9C7" transform="translate(1532.44384765625,201.791259765625)"/>
<path d="M0 0 C3.22471289 1.87978432 6.33737398 3.87381843 9.44628906 5.93945312 C10.58431778 6.67264068 11.72390758 7.40341042 12.86499023 8.13183594 C15.1670035 9.60277483 17.46279001 11.08277159 19.75537109 12.56835938 C25.36195173 16.15472166 31.10178856 19.51239499 36.84033203 22.88183594 C47.87932072 29.43483286 47.87932072 29.43483286 50.07128906 34.68945312 C51.21355544 41.52444507 49.30556921 46.35568618 45.82128906 52.12695312 C45.37599854 52.89410645 44.93070801 53.66125977 44.47192383 54.45166016 C28.30371141 81.90268564 8.52611995 108.20802255 -16.92871094 127.68945312 C-17.4878418 128.11967773 -18.04697266 128.54990234 -18.62304688 128.99316406 C-27.67868958 135.92385421 -37.0179914 142.05812337 -46.92871094 147.68945312 C-47.50492188 148.02541504 -48.08113281 148.36137695 -48.67480469 148.70751953 C-71.43101177 161.93682246 -97.07010049 169.78576709 -123.07495117 173.22192383 C-130.293744 174.23951648 -130.293744 174.23951648 -135.92871094 178.68945312 C-138.08456125 182.89155889 -138.21622925 186.81096949 -138.19715309 191.43726063 C-138.20185755 192.2141798 -138.20656201 192.99109898 -138.21140903 193.79156116 C-138.22476232 196.40462002 -138.22387341 199.01747936 -138.22305298 201.63056946 C-138.22965202 203.51931615 -138.23710353 205.40806003 -138.24533594 207.29680032 C-138.26537421 212.49529868 -138.2728093 217.69375086 -138.27811456 222.89228237 C-138.2859218 228.49667948 -138.30507914 234.10104004 -138.32254028 239.70541382 C-138.36207729 253.24897734 -138.38220752 266.79254386 -138.39999586 280.33615068 C-138.40876487 286.71917575 -138.41949807 293.1021975 -138.4299736 299.48521996 C-138.46400734 320.71594927 -138.49303922 341.94667479 -138.50747108 363.17742634 C-138.50842059 364.5505129 -138.50937236 365.92359945 -138.51032641 367.296686 C-138.51079916 367.97759012 -138.51127191 368.65849424 -138.51175899 369.36003181 C-138.51416129 372.80960131 -138.51659221 376.25917078 -138.51904297 379.70874023 C-138.51952327 380.39331007 -138.52000357 381.0778799 -138.52049842 381.78319427 C-138.5362581 403.94146139 -138.58306164 426.09951348 -138.64815486 448.25768682 C-138.71691926 471.70863948 -138.75618721 495.15942008 -138.76275957 518.61048859 C-138.7670798 531.38360823 -138.78442887 544.15641227 -138.83568192 556.92943764 C-138.87926253 567.81548331 -138.89511601 578.70113679 -138.87574835 589.58725981 C-138.86670511 595.13372934 -138.87017658 600.67939118 -138.90927124 606.22574806 C-139.44356139 635.85046613 -139.44356139 635.85046613 -131.64566612 664.14129925 C-129.74470834 668.6194088 -129.06201728 672.86213656 -129.92871094 677.68945312 C-131.63516438 680.97800205 -133.85233434 683.14647288 -137.19255066 684.83145142 C-140.4192196 685.84326622 -143.13769461 685.95765728 -146.51977539 685.97998047 C-148.49256218 685.99912003 -148.49256218 685.99912003 -150.50520325 686.01864624 C-151.93413139 686.02170436 -153.36306152 686.02393187 -154.79199219 686.02539062 C-156.26783882 686.03182359 -157.74368419 686.03855232 -159.2195282 686.04556274 C-162.3103633 686.05752055 -165.40108677 686.06124519 -168.49194336 686.06005859 C-172.43611841 686.05985565 -176.37957093 686.08713796 -180.32357502 686.12160301 C-183.37181327 686.14393591 -186.41987949 686.14789417 -189.46819115 686.14683914 C-190.92134271 686.14918626 -192.37449965 686.15795934 -193.82756996 686.17350388 C-201.72040933 686.25002542 -208.20896009 686.2637881 -214.92871094 681.68945312 C-218.02571685 677.04394426 -217.73629241 673.14062806 -216.92871094 667.68945312 C-215.22297725 661.93750347 -212.96657416 656.37053842 -210.68481445 650.82666016 C-208.93207038 645.87234254 -208.78464515 641.05601841 -208.79728317 635.84730721 C-208.79523054 635.06022977 -208.79317791 634.27315233 -208.79106307 633.46222407 C-208.78539154 630.81481707 -208.78685051 628.16746206 -208.78826904 625.52005005 C-208.78568551 623.60681564 -208.78267238 621.69358178 -208.77926564 619.78034866 C-208.77119126 614.51482675 -208.76940583 609.24931848 -208.76866817 603.98379111 C-208.76681843 598.30816008 -208.75927158 592.63253612 -208.75253296 586.95690918 C-208.73894687 574.54390895 -208.73292473 562.13091195 -208.7285223 549.71790552 C-208.72576083 541.97033145 -208.7215237 534.22275862 -208.71701813 526.47518539 C-208.70482602 505.03253036 -208.69449061 483.58987696 -208.69114304 462.1472187 C-208.6909214 460.76081963 -208.69069962 459.37442056 -208.69047768 457.98802149 C-208.69025704 456.59827689 -208.69003656 455.20853229 -208.68981624 453.81878769 C-208.68937368 451.03072174 -208.68892657 448.24265579 -208.68847656 445.45458984 C-208.68836717 444.76331258 -208.68825778 444.07203531 -208.68814507 443.35981025 C-208.68451319 420.93729949 -208.66858731 398.51482102 -208.6452862 376.09232263 C-208.62069688 352.38688254 -208.60697738 328.68146632 -208.60577512 304.97601211 C-208.60485746 292.05320523 -208.59908206 279.13044066 -208.58095551 266.20764542 C-208.56557862 255.20628593 -208.56041985 244.20498184 -208.56869361 233.20361365 C-208.57260841 227.58863113 -208.57162998 221.97376024 -208.55763626 216.35879135 C-208.54494746 211.22055145 -208.54605056 206.08250765 -208.55822697 200.94426821 C-208.56019268 199.08360371 -208.55706547 197.22292555 -208.54838261 195.36228026 C-208.53733684 192.83570812 -208.54474518 190.30983381 -208.55677414 187.78328133 C-208.54917895 187.05868337 -208.54158375 186.33408542 -208.5337584 185.58752996 C-208.59185438 179.94608247 -209.67615225 174.93577121 -213.77929688 170.84399414 C-216.28218336 169.49958817 -218.54619526 168.84223762 -221.31933594 168.21679688 C-222.4041626 167.96269043 -223.48898926 167.70858398 -224.60668945 167.44677734 C-226.37484009 167.04096436 -226.37484009 167.04096436 -228.17871094 166.62695312 C-256.51451585 159.79660836 -283.7338527 150.09037273 -310.92871094 139.68945312 C-312.70341611 139.01195413 -314.47815674 138.33454801 -316.25292969 137.65722656 C-333.46574905 131.08531317 -350.67247482 124.4971441 -367.85725403 117.85223389 C-372.2875085 116.1414169 -376.72084085 114.43867322 -381.15475464 112.73736572 C-383.2501347 111.93129561 -385.34421632 111.12183964 -387.4367981 110.30853271 C-418.61853582 98.19355605 -450.29188749 89.21815652 -483.92871094 89.31445312 C-484.68573303 89.31532928 -485.44275513 89.31620544 -486.22271729 89.31710815 C-520.1197063 89.44554961 -556.33439109 98.50868703 -581.70996094 122.31835938 C-590.86870917 132.10596532 -594.66808513 145.51943074 -597.58544922 158.30908203 C-599.10199759 164.88849267 -599.10199759 164.88849267 -600.92871094 167.68945312 C-605.39172072 169.86906256 -609.23741523 170.17418581 -613.92871094 168.68945312 C-618.12796178 166.52074462 -622.07589721 163.98699253 -626.05371094 161.43945312 C-627.20435806 160.71394462 -628.35573468 159.98959189 -629.5078125 159.26635742 C-631.84898747 157.79516239 -634.1863632 156.31818453 -636.52148438 154.83740234 C-639.69313641 152.83118822 -642.88849463 150.86587429 -646.09277344 148.91210938 C-647.51178955 148.04537598 -647.51178955 148.04537598 -648.95947266 147.16113281 C-650.72271926 146.08526426 -652.48728986 145.01156144 -654.25341797 143.94042969 C-666.39228201 136.47754954 -666.39228201 136.47754954 -668.05371094 130.93945312 C-668.88546703 111.41126651 -642.56697008 85.69769529 -630.34326172 72.21044922 C-605.09368213 45.06083223 -568.50295698 29.79506701 -532.80371094 22.43945312 C-531.71509766 22.21273926 -531.71509766 22.21273926 -530.60449219 21.98144531 C-515.78438074 19.12696298 -500.9216692 18.30895028 -485.86621094 18.37695312 C-485.02009247 18.37877594 -484.173974 18.38059875 -483.30221558 18.38247681 C-469.00652849 18.43402275 -455.03574659 19.23184883 -440.92871094 21.68945312 C-439.95546875 21.85574219 -438.98222656 22.02203125 -437.97949219 22.19335938 C-421.88629859 25.03333472 -406.4279558 29.56794462 -390.92871094 34.68945312 C-389.76001465 35.07311035 -388.59131836 35.45676758 -387.38720703 35.85205078 C-365.37885991 43.12311427 -343.7390809 51.34649258 -322.0809021 59.59103394 C-300.22950104 67.90640379 -278.28461699 75.96688735 -256.30160522 83.92727661 C-254.13432248 84.71269309 -251.96765094 85.49979868 -249.80166626 86.28878784 C-223.98910547 95.80508731 -223.98910547 95.80508731 -197.24121094 102.00195312 C-196.35755859 102.15728516 -195.47390625 102.31261719 -194.56347656 102.47265625 C-192.02225916 102.90963312 -189.47917728 103.31051053 -186.92871094 103.68945312 C-186.24212402 103.79330322 -185.55553711 103.89715332 -184.84814453 104.00415039 C-143.8942123 109.38619661 -100.51011196 101.04804594 -66.92871094 76.43945312 C-43.68381798 58.39448296 -26.97340646 40.57933686 -20.71533203 10.89892578 C-20.52535645 10.0254248 -20.33538086 9.15192383 -20.13964844 8.25195312 C-19.97770996 7.46949219 -19.81577148 6.68703125 -19.64892578 5.88085938 C-18.80581677 3.3155216 -17.73977789 1.68650969 -15.92871094 -0.31054688 C-10.38320946 -2.15904737 -5.42305704 -2.42672309 0 0 Z " fill="#FCE9C7" transform="translate(2717.9287109375,119.310546875)"/>
<path d="M0 0 C1.33232162 -0.00503792 1.33232162 -0.00503792 2.69155884 -0.01017761 C5.64594912 -0.01971909 8.60028273 -0.0216335 11.5546875 -0.02270508 C13.61621117 -0.02591967 15.67773462 -0.0292839 17.73925781 -0.03279114 C22.0771538 -0.03879331 26.41502984 -0.04063035 30.75292969 -0.04003906 C36.2642448 -0.03993834 41.77542845 -0.05349147 47.28671265 -0.07081127 C51.556036 -0.0820413 55.82532893 -0.08395479 60.09466553 -0.08342934 C62.1228683 -0.08459677 64.1510722 -0.08894759 66.17926025 -0.0967617 C82.83621335 -0.15483685 99.16114594 0.56506918 115.3671875 4.77026367 C116.37515381 5.0282373 117.38312012 5.28621094 118.42163086 5.55200195 C128.18334785 8.16324007 137.33450042 11.76888348 146.4296875 16.14526367 C147.10322266 16.4675293 147.77675781 16.78979492 148.47070312 17.12182617 C163.213301 24.2962655 175.67435421 33.79239543 187.4296875 45.14526367 C188.21988281 45.88389648 189.01007812 46.6225293 189.82421875 47.38354492 C219.44947378 75.76360534 232.71979436 117.00518053 233.6796875 157.20776367 C232.58606181 202.62539535 214.03493053 248.76088175 181.2578125 280.69213867 C177.18004611 284.22920675 172.85348054 287.38865429 168.43066406 290.47998047 C165.48390797 292.54968929 163.44971744 294.11521876 161.4296875 297.14526367 C161.72515863 302.39361892 163.22667984 306.40586255 165.5 311.10620117 C165.81270844 311.76073273 166.12541687 312.41526428 166.44760132 313.08963013 C167.12238528 314.49985396 167.80136344 315.90807717 168.48413086 317.31445312 C170.33167468 321.12119392 172.14775094 324.9429614 173.96875 328.76245117 C174.34352478 329.54630188 174.71829956 330.33015259 175.10443115 331.13775635 C178.8208045 338.92531249 182.38426911 346.77879997 185.9296875 354.64526367 C190.99401159 365.86149127 196.16653261 377.02099462 201.4296875 388.14526367 C207.03289462 399.9887333 212.52141223 411.87786405 217.91726685 423.81716919 C223.26278439 435.64115914 228.73500463 447.40168479 234.28173828 459.13256836 C237.26950082 465.4618183 240.18001547 471.80830541 242.90673828 478.25561523 C247.22215651 488.43096335 252.93271452 495.83226815 260.82421875 503.48901367 C265.59152408 508.40710968 268.19851375 512.85103779 268.6796875 519.70776367 C268.4296875 523.14526367 268.4296875 523.14526367 267.33950806 524.83485413 C264.46644002 526.80618895 262.08108657 526.53431046 258.62255859 526.54931641 C257.59020081 526.55961128 257.59020081 526.55961128 256.5369873 526.57011414 C254.25882381 526.58843096 251.98134646 526.58453513 249.703125 526.57885742 C248.1147133 526.58341972 246.52630358 526.58872544 244.93789673 526.59474182 C241.60386151 526.60368458 238.27006561 526.60124001 234.93603516 526.59130859 C230.68248683 526.57986779 226.42977474 526.59994825 222.17633629 526.62922573 C218.89212869 526.64766699 215.60811805 526.64727875 212.32387161 526.64158821 C210.75712544 526.64143569 209.19036532 526.64742237 207.62366867 526.65987968 C189.32002811 526.78481759 189.32002811 526.78481759 181.9921875 519.83276367 C178.27231912 513.43459007 177.91304387 506.37729119 177.39453125 499.16870117 C176.26254965 486.82369425 170.0606139 475.74773315 164.86691284 464.68304443 C162.71687309 460.10197025 160.58219423 455.51373625 158.4453125 450.92651367 C158.01548569 450.0048642 157.58565887 449.08321472 157.14280701 448.13363647 C153.3308815 439.95313168 149.58703652 431.74295368 145.8671875 423.52026367 C140.06653213 410.70825799 134.19010818 397.93244262 128.28372192 385.16885376 C124.2380924 376.42538101 120.20508369 367.6769676 116.234375 358.89916992 C115.73191254 357.78915115 115.73191254 357.78915115 115.21929932 356.65670776 C113.65854373 353.20701639 112.10149322 349.75573116 110.55078125 346.30151367 C107.54276885 339.62134443 104.4506833 332.98148466 101.25 326.39135742 C100.92852997 325.71146255 100.60705994 325.03156769 100.27584839 324.33106995 C98.49979653 320.72663853 97.03892752 318.05330279 93.4296875 316.14526367 C91.35015133 315.69135277 91.35015133 315.69135277 89.1640625 315.74682617 C87.95169922 315.74102539 87.95169922 315.74102539 86.71484375 315.73510742 C85.87824219 315.74670898 85.04164063 315.75831055 84.1796875 315.77026367 C83.35855469 315.75866211 82.53742187 315.74706055 81.69140625 315.73510742 C76.38732437 315.76032493 70.95889111 316.13143117 66.4296875 319.14526367 C63.20227126 323.35977283 62.97946093 327.17898186 62.97802734 332.3059082 C62.96634521 333.11492584 62.95466309 333.92394348 62.94262695 334.75747681 C62.90905916 337.43113125 62.89829883 340.10422948 62.890625 342.77807617 C62.87842912 344.65355616 62.86594263 346.52903428 62.85317993 348.4045105 C62.83069734 352.34369253 62.82115055 356.28268125 62.81884766 360.22192383 C62.8136078 365.21691965 62.76255192 370.21025318 62.69933128 375.20480537 C62.65798483 379.08647618 62.64920181 382.9677651 62.64873123 386.84963608 C62.64341762 388.68728439 62.62686984 390.5249422 62.59788132 392.36236954 C62.43932262 403.34153425 63.4954931 412.39814957 67.89183617 422.55414009 C70.67138137 429.01938873 72.41770036 435.58841737 70.4921875 442.52026367 C67.67911359 446.10053956 64.700432 447.79145392 60.4296875 449.14526367 C55.45407166 449.72540574 50.49444659 449.70949028 45.4921875 449.67651367 C44.04304749 449.6792135 42.59390925 449.68309999 41.14477539 449.68811035 C38.11880111 449.69398247 35.09330157 449.68551737 32.06738281 449.66674805 C28.20728254 449.64395899 24.34829502 449.65709453 20.48823547 449.6810379 C17.49914308 449.69555852 14.51031034 449.69086151 11.52120972 449.68052673 C10.09878403 449.67787668 8.67633402 449.68106802 7.25393677 449.69044495 C-0.747586 449.73163004 -6.78058528 449.59556835 -13.5703125 445.14526367 C-16.41778692 442.29778925 -16.34096096 439.8250008 -16.65916467 435.90385365 C-16.53794279 432.14028255 -15.36920808 429.36344063 -13.86345208 425.94931662 C-6.77157048 409.86743239 -7.43417304 393.46652252 -7.55383325 376.274966 C-7.57634131 371.76096019 -7.55207446 367.24714753 -7.53414917 362.7331543 C-7.50647728 353.92383909 -7.52124986 345.1151025 -7.55150034 336.30581553 C-7.58544346 326.02507319 -7.57877253 315.7444705 -7.57131217 305.46368937 C-7.55959132 287.11182592 -7.58775927 268.76023809 -7.63720703 250.40844727 C-7.68508012 232.63881107 -7.69919459 214.86954265 -7.67822266 197.09985352 C-7.65536319 177.69638174 -7.65159147 158.29307949 -7.68041885 138.88960969 C-7.68347021 136.81783892 -7.68651092 134.74606814 -7.68954086 132.67429733 C-7.69105649 131.65522514 -7.69257212 130.63615294 -7.69413368 129.58619977 C-7.70358435 122.43495968 -7.69994176 115.28379579 -7.69141006 108.13255692 C-7.68151972 99.41183656 -7.69369015 90.69146261 -7.73319866 81.97082122 C-7.75283223 77.52900483 -7.76327632 73.08771394 -7.74741364 68.64587021 C-7.4992968 44.26182686 -7.4992968 44.26182686 -14.5703125 21.14526367 C-16.3587946 15.45588123 -17.33857523 10.93128791 -15.5703125 5.14526367 C-10.67671922 0.12619364 -6.7032374 -0.00360144 0 0 Z M64.4296875 74.14526367 C62.15276203 77.58121536 62.17617124 80.56128547 62.16899109 84.62216187 C62.16516554 85.270631 62.16133999 85.91910012 62.15739852 86.58721983 C62.14708719 88.7581804 62.15105704 90.92887557 62.1550293 93.09985352 C62.15068174 94.65719345 62.14549845 96.21453124 62.13954163 97.77186584 C62.12614405 102.00125988 62.12557387 106.2305646 62.12810493 110.45997572 C62.12917426 113.99126964 62.12429214 117.52254546 62.1194995 121.05383551 C62.10840139 129.38575761 62.10796842 137.71763463 62.11401367 146.04956055 C62.12005275 154.64285577 62.10774484 163.23598723 62.0864436 171.82925451 C62.06882463 179.20857168 62.06282677 186.58783674 62.06608135 193.96717417 C62.0678941 198.37382561 62.06525896 202.78036026 62.05136681 207.18699265 C62.03878848 211.33206862 62.04073253 215.47688952 62.05377769 219.62196159 C62.05614314 221.14169971 62.05340991 222.66145578 62.04515457 224.18117332 C62.03468201 226.2592101 62.04279078 228.33639181 62.0554657 230.41439819 C62.05529796 231.57619284 62.05513021 232.73798748 62.05495739 233.93498802 C62.54122046 238.10075549 63.75605774 241.76322096 67.06640625 244.49682617 C84.18233238 249.19309681 102.79055497 242.6036822 117.57226562 234.25268555 C139.59289722 221.12366545 154.87808352 198.7655018 161.4296875 174.14526367 C166.63619732 153.25937944 161.30055406 133.27693353 150.4296875 115.14526367 C147.96203695 111.29260767 145.31845525 107.69132274 142.4296875 104.14526367 C141.43388672 102.90389648 141.43388672 102.90389648 140.41796875 101.63745117 C126.45472017 85.17062568 106.84155701 73.61745873 85.4296875 70.14526367 C82.95387744 69.97948495 80.47308748 69.88023306 77.9921875 69.83276367 C76.71472656 69.79538086 75.43726562 69.75799805 74.12109375 69.71948242 C69.79608999 70.21834529 67.74094181 71.36068899 64.4296875 74.14526367 Z " fill="#FCE9C7" transform="translate(3048.5703125,355.854736328125)"/>
<path d="M0 0 C30.0814519 28.45762184 48.09517565 67.78240697 54.5625 108.375 C54.67819336 109.0438623 54.79388672 109.71272461 54.91308594 110.40185547 C62.3341409 154.10240019 52.77377456 200.79812106 31.5625 239.375 C31.21606445 240.00599609 30.86962891 240.63699219 30.51269531 241.28710938 C12.01275749 274.49559795 -17.52782087 301.38920698 -54.375 312.3125 C-66.16630359 315.65916704 -77.69208282 316.7875176 -89.9375 316.75 C-90.63926361 316.74912384 -91.34102722 316.74824768 -92.0640564 316.74734497 C-128.97118979 316.59591658 -159.94116954 301.43448834 -185.984375 275.85986328 C-189.80087967 271.96000082 -193.12691577 267.70280284 -196.4375 263.375 C-197.14003906 262.51132812 -197.84257812 261.64765625 -198.56640625 260.7578125 C-223.67734081 229.04346582 -236.36696071 187.49695067 -237.4375 147.375 C-237.47746094 146.24320313 -237.51742187 145.11140625 -237.55859375 143.9453125 C-238.50930836 92.83042119 -221.73034121 42.684575 -186.4375 5.375 C-185.61894531 4.49199219 -184.80039063 3.60898437 -183.95703125 2.69921875 C-132.94814616 -50.57003053 -53.08278653 -48.2049551 0 0 Z M-137.11791992 55.51660156 C-150.46677212 69.75123324 -158.55747915 87.67054449 -163.4375 106.375 C-163.75847656 107.58414063 -164.07945312 108.79328125 -164.41015625 110.0390625 C-168.68526139 129.56535666 -168.46822401 153.04322587 -163.4375 172.375 C-163.27121094 173.05449707 -163.10492187 173.73399414 -162.93359375 174.43408203 C-158.69084631 191.58970988 -151.36532873 206.51317224 -140.4375 220.375 C-139.78007812 221.21675781 -139.12265625 222.05851563 -138.4453125 222.92578125 C-128.39636051 234.99703271 -113.36912889 245.10082731 -97.41943359 246.55957031 C-79.36893212 247.67891883 -64.04618144 243.09430076 -50.25 231.0625 C-48.62548832 229.52116332 -47.02097039 227.95847039 -45.4375 226.375 C-44.66535156 225.60285156 -43.89320313 224.83070313 -43.09765625 224.03515625 C-20.40820363 200.10457118 -12.6669843 165.57664798 -13.1875 133.578125 C-13.43987107 125.31549606 -14.54231088 117.41308613 -16.4375 109.375 C-16.59847168 108.68035645 -16.75944336 107.98571289 -16.92529297 107.27001953 C-23.24787063 81.02615972 -37.78823756 55.94062501 -61.00585938 41.33276367 C-88.17083909 25.33867366 -116.00918843 34.07303001 -137.11791992 55.51660156 Z " fill="#FCE9C7" transform="translate(2921.4375,392.625)"/>
<path d="M0 0 C0.6930574 -0.00671722 1.38611481 -0.01343445 2.10017395 -0.02035522 C4.39262047 -0.03936075 6.6847745 -0.04326095 8.97729492 -0.04541016 C10.57289246 -0.05183739 12.16848881 -0.0585657 13.76408386 -0.06558228 C17.110654 -0.07756217 20.45712087 -0.08126248 23.80371094 -0.08007812 C28.08441796 -0.07987514 32.36445956 -0.10715257 36.64500904 -0.14162254 C39.94194048 -0.16390393 43.23871227 -0.16791526 46.53571129 -0.16685867 C48.1133217 -0.16921372 49.69093657 -0.17803191 51.26847267 -0.19352341 C53.48023078 -0.21320533 55.69056074 -0.20733783 57.90234375 -0.1953125 C59.78739372 -0.19958755 59.78739372 -0.19958755 61.71052551 -0.20394897 C66.68648954 0.51240734 69.78815464 2.75830747 73.08276367 6.47802734 C75.47809633 12.81861379 72.92157201 19.41950606 70.61080592 25.48398888 C66.13479362 37.25487726 65.1554295 47.70186642 65.2900238 60.18797302 C65.28552546 62.20235802 65.27795445 64.21673804 65.26762348 66.23110157 C65.24829918 71.70217976 65.27201298 77.17231149 65.30348623 82.64330113 C65.32980659 88.56745166 65.31528421 94.49152813 65.30601501 100.41571045 C65.2942065 111.9915232 65.31934553 123.56696957 65.3570286 135.14271539 C65.3869284 144.54768652 65.40072829 153.95257439 65.40324593 163.35759163 C65.40343685 164.02765554 65.40362778 164.69771944 65.4038245 165.38808832 C65.40455403 168.10845266 65.40518115 170.828817 65.40567472 173.54918139 C65.41017852 198.28604332 65.44811202 223.02273455 65.50732422 247.75952148 C65.5631703 271.09872363 65.59854142 294.43783236 65.60986328 317.77709961 C65.61021784 318.4972563 65.61057239 319.21741298 65.6109377 319.9593926 C65.61272059 323.58679528 65.61447385 327.21419797 65.61622268 330.84160066 C65.61656888 331.55743704 65.61691508 332.27327343 65.61727176 333.01080183 C65.6179673 334.45430325 65.61865623 335.89780468 65.61933853 337.34130611 C65.63032268 360.31814075 65.65755115 383.29495802 65.68834404 406.27177368 C65.69730496 412.99388726 65.70551421 419.71600028 65.71195483 426.43811679 C65.72563818 440.56265372 65.74466976 454.6871466 65.78166854 468.81164496 C65.79688268 474.65138407 65.80902791 480.49108413 65.81264496 486.33084297 C65.81609533 491.67253771 65.82877225 497.01412683 65.84895492 502.35578383 C65.85467577 504.29131294 65.85703296 506.22685541 65.85574584 508.16239255 C65.85452798 510.78721014 65.86550638 513.41170174 65.87961483 516.03647518 C65.87636174 516.79281784 65.87310864 517.5491605 65.86975697 518.32842264 C65.90856011 522.6684266 66.32206344 526.32519004 68.14526367 530.29052734 C71.22474986 531.31702274 73.36895351 531.43114702 76.59700012 531.45788574 C77.73048386 531.46937653 78.86396759 531.48086731 80.03179932 531.4927063 C81.89937897 531.50380936 81.89937897 531.50380936 83.8046875 531.51513672 C85.77132607 531.53222183 85.77132607 531.53222183 87.7776947 531.5496521 C92.13585472 531.58623319 96.49404351 531.61146558 100.85229492 531.63427734 C101.59671018 531.63822321 102.34112545 531.64216908 103.10809875 531.64623451 C110.14893697 531.68270752 117.18978562 531.71411422 124.23068714 531.73534393 C133.18972668 531.76276507 142.14796146 531.81319905 151.10666639 531.89581823 C157.42802864 531.95209828 163.74917634 531.98065099 170.07077998 531.98981714 C173.83221372 531.99600663 177.59270533 532.01350171 181.35386086 532.061203 C197.28645823 532.25434915 211.5701553 531.6948769 226.58695984 525.79650879 C231.07664239 524.11795069 235.38341799 523.5375174 240.14526367 524.29052734 C243.01556236 526.08446402 244.63658005 527.27316011 246.14526367 530.29052734 C246.27529375 532.16227403 246.34341889 534.03845221 246.38232422 535.91430664 C246.40872482 537.09280685 246.43512543 538.27130707 246.46232605 539.48551941 C246.49680595 541.40573662 246.49680595 541.40573662 246.53198242 543.36474609 C246.57026909 545.33324272 246.57026909 545.33324272 246.60932922 547.34150696 C246.6623409 550.12483656 246.71124668 552.90820589 246.7578125 555.69165039 C246.81795388 559.24475058 246.89222531 562.7973985 246.97018719 566.35014629 C247.04197014 569.75068881 247.09848899 573.15144928 247.15698242 576.55224609 C247.18604172 577.82226974 247.21510101 579.0922934 247.24504089 580.40080261 C247.44415077 594.43452833 247.44415077 594.43452833 243.74291992 599.03271484 C239.78006552 601.95695855 236.97216327 603.41256998 232.06591511 603.42474842 C231.23234401 603.42920626 230.39877291 603.43366411 229.53994209 603.43825704 C228.16633034 603.43798049 228.16633034 603.43798049 226.76496887 603.43769836 C225.30563723 603.4432134 225.30563723 603.4432134 223.81682414 603.44883984 C220.54193998 603.45989304 217.26708754 603.4637233 213.9921875 603.4675293 C211.65007425 603.47379271 209.30796199 603.4804394 206.96585083 603.48744202 C200.59173112 603.50486296 194.21761892 603.51540676 187.8434813 603.52364755 C183.86253303 603.52879535 179.88158711 603.53487118 175.90064049 603.54115868 C164.87648888 603.55817067 153.85233826 603.57266437 142.82817554 603.57990742 C139.96764436 603.58181728 137.10711318 603.58373762 134.24658203 603.58569336 C133.18013912 603.58641897 133.18013912 603.58641897 132.0921519 603.58715924 C120.57758049 603.59545779 109.06311303 603.62079183 97.548587 603.65327404 C85.72400155 603.68635865 73.89946889 603.70435746 62.07483691 603.70755166 C55.43691079 603.70971551 48.79911894 603.71888968 42.1612339 603.74401283 C35.9158057 603.76726836 29.67065023 603.77153672 23.42518997 603.76125145 C21.13386949 603.76075537 18.8425357 603.76709687 16.55125618 603.7808075 C13.42066905 603.79849104 10.29106444 603.79143698 7.16047668 603.77827454 C6.25588913 603.78924378 5.35130158 603.80021303 4.41930228 603.81151468 C-1.38692915 603.75266508 -6.07338894 602.74422082 -10.85473633 599.29052734 C-14.1023163 594.41915739 -13.58927195 589.98801525 -12.85473633 584.29052734 C-12.11498359 582.04644174 -11.24860091 579.87987833 -10.3607944 577.69035156 C-5.54035223 565.68891716 -4.85814992 554.88133829 -4.9591217 542.07794189 C-4.95031812 539.9081265 -4.93847475 537.73832173 -4.92389292 535.56853747 C-4.89298662 529.66257536 -4.90514003 523.75739947 -4.9250046 517.85141945 C-4.93886459 511.459917 -4.91225901 505.06855823 -4.8910675 498.67709351 C-4.85819898 486.89817603 -4.85709419 475.11953279 -4.87301837 463.34058741 C-4.88768309 452.45362 -4.88963349 441.56674389 -4.87908745 430.67977142 C-4.87840763 429.9554108 -4.87772781 429.23105018 -4.87702739 428.48473924 C-4.87426587 425.54370097 -4.87146585 422.60266273 -4.86859533 419.66162456 C-4.84201312 392.11189839 -4.85693761 364.56232957 -4.89003773 337.01261806 C-4.91910872 312.58626573 -4.9090753 288.16021713 -4.86669922 263.73388672 C-4.81911142 236.23807246 -4.79790673 208.74243345 -4.81733602 181.24657893 C-4.81933469 178.30990143 -4.82126046 175.3732239 -4.82314873 172.43654633 C-4.82387791 171.35206284 -4.82387791 171.35206284 -4.82462181 170.24567059 C-4.8314479 159.37365638 -4.81825155 148.50178662 -4.79493904 137.62979889 C-4.76848212 125.25270878 -4.77154161 112.87605759 -4.81013293 100.49898627 C-4.82906792 94.19301049 -4.83559617 87.88771472 -4.80688477 81.58176041 C-4.78088844 75.79272253 -4.79276526 70.0049629 -4.83303421 64.21601805 C-4.84117856 62.13814884 -4.83627898 60.06017145 -4.81591941 57.98238602 C-4.68858939 43.93477926 -7.18394466 32.48409822 -12.14021391 19.32769656 C-13.53428213 15.50379261 -14.4419505 12.40603433 -13.85473633 8.29052734 C-10.16812704 1.68005552 -7.46258611 0.04535689 0 0 Z " fill="#FCE9C7" transform="translate(735.854736328125,201.70947265625)"/>
<path d="M0 0 C1.29789459 -0.01226624 1.29789459 -0.01226624 2.62200928 -0.02478027 C5.49458115 -0.04965474 8.36710342 -0.06615848 11.23974609 -0.08056641 C12.22085735 -0.08589008 13.20196861 -0.09121376 14.21281052 -0.09669876 C19.40911834 -0.12344348 24.60540206 -0.14281127 29.80175781 -0.15722656 C35.16183172 -0.17384758 40.52128757 -0.21860033 45.88112831 -0.26959801 C50.00764647 -0.30331148 54.13401896 -0.3148087 58.26066208 -0.32045364 C60.23576945 -0.32715832 62.21086749 -0.34235993 64.18584061 -0.36634445 C66.9577329 -0.39807712 69.72797265 -0.3980203 72.5 -0.390625 C73.30966217 -0.40703033 74.11932434 -0.42343567 74.95352173 -0.44033813 C80.82133863 -0.37656423 85.22902561 1.21860707 89.63818359 5.19287109 C92.30274195 9.69425292 91.83967196 13.20669439 90.63818359 18.19287109 C89.81271883 20.03930542 88.95610465 21.87200027 88.07568359 23.69287109 C85.98243974 28.51077318 85.1822166 32.75502195 85.21264648 37.96923828 C85.21677331 38.70787487 85.22090014 39.44651146 85.22515202 40.20753098 C85.45341636 48.9028196 87.66725978 56.94413748 90.00927734 65.27099609 C90.48029917 67.00752465 90.94937225 68.74458276 91.41667175 70.4821167 C92.4201516 74.19716909 93.43682613 77.90824418 94.4644165 81.61669922 C96.11221417 87.56351183 97.73034199 93.51816478 99.34472656 99.47412109 C101.61735052 107.8488729 103.90253921 116.22009938 106.1953125 124.58935547 C109.50901381 136.69205517 112.77534508 148.80718512 116.02490234 160.92724609 C116.28375277 161.89253864 116.54260319 162.85783119 116.80929756 163.85237503 C117.85103426 167.737466 118.89263505 171.62259332 119.93385792 175.50782204 C121.74110843 182.25022534 123.55343928 188.99124736 125.36889648 195.73144531 C125.62484809 196.68176573 125.88079969 197.63208614 126.14450741 198.61120415 C126.66088735 200.52843765 127.17726861 202.4456708 127.6936512 204.36290359 C131.88611439 219.93035013 136.05980357 235.50266312 140.21167374 251.08098602 C141.74421776 256.82949719 143.27932897 262.57732355 144.81428337 268.3251915 C146.26005902 273.74070391 147.70124038 279.15741189 149.13897705 284.57506371 C150.01994938 287.89039446 150.90524205 291.20456016 151.79172516 294.51842117 C152.19882026 296.04389673 152.60408632 297.5698618 153.00734711 299.09635544 C153.55831063 301.18112744 154.11577786 303.26405771 154.67480469 305.34667969 C154.98356537 306.50734955 155.29232605 307.66801941 155.61044312 308.86386108 C157.2762314 314.25960641 159.45596938 319.20149007 162.52099609 323.96240234 C163.04822266 324.78804687 163.57544922 325.61369141 164.11865234 326.46435547 C164.66134766 327.30289062 165.20404297 328.14142578 165.76318359 329.00537109 C166.84981417 330.69893702 167.93578497 332.3929265 169.02099609 334.08740234 C169.49939941 334.82837158 169.97780273 335.56934082 170.47070312 336.33276367 C172.52797635 339.61054801 172.87680801 342.14994536 173.16162109 346.02490234 C172.32327695 349.4971486 170.34828119 350.95153323 167.63818359 353.19287109 C164.35734558 353.82778931 164.35734558 353.82778931 160.58813477 353.83984375 C159.55292946 353.85298615 159.55292946 353.85298615 158.49681091 353.86639404 C156.22427732 353.88832848 153.9537044 353.87385445 151.68115234 353.85693359 C150.093202 353.86030467 148.50525417 353.86515971 146.91731262 353.87142944 C143.59086516 353.87879359 140.26508987 353.86811526 136.9387207 353.84472656 C132.69162487 353.81630771 128.44611373 353.83260017 124.19907665 353.86258888 C120.91913615 353.8807346 117.63956562 353.87486968 114.35961342 353.86194992 C112.79484173 353.85863228 111.23003562 353.86264481 109.66530418 353.87434769 C94.56957784 353.96244525 94.56957784 353.96244525 89.0430603 349.65394592 C85.8217252 346.30375042 84.74048662 343.42925044 84.36108398 338.84399414 C84.42283813 337.04248901 84.42283813 337.04248901 84.48583984 335.20458984 C84.51748844 333.85239306 84.54838544 332.50017851 84.57861328 331.14794922 C84.59935913 330.45000244 84.62010498 329.75205566 84.64147949 329.03295898 C84.98279408 316.62318295 84.85619071 305.03238072 80.63818359 293.19287109 C80.32623047 292.30857422 80.01427734 291.42427734 79.69287109 290.51318359 C78.39513154 287.44877339 77.11478036 285.50696886 74.32177734 283.66625977 C68.8864929 281.49221804 63.31870729 280.55438358 57.57568359 279.49365234 C56.31103271 279.25374069 55.04638184 279.01382904 53.7434082 278.76664734 C51.07491652 278.26107467 48.40537657 277.76162623 45.73486328 277.2668457 C42.32360623 276.63455088 38.91492313 275.98947855 35.50688171 275.34010029 C32.23924197 274.71876024 28.96994026 274.1064297 25.70068359 273.49365234 C24.48179443 273.26245193 23.26290527 273.03125153 22.00708008 272.79304504 C20.8656958 272.58249985 19.72431152 272.37195465 18.54833984 272.1550293 C17.54939697 271.96866409 16.5504541 271.78229889 15.52124023 271.59028625 C10.83673455 270.94455021 7.69057365 270.63572342 3.45068359 272.88037109 C-3.19614563 278.34554179 -4.47531416 286.57285164 -6.54931641 294.56787109 C-6.7325647 295.26507263 -6.91581299 295.96227417 -7.10461426 296.68060303 C-10.27183291 309.00469625 -11.04237855 320.5845365 -10.41723633 333.26464844 C-10.01013276 342.37049975 -10.01013276 342.37049975 -11.90869141 346.81005859 C-17.11319648 351.86538995 -21.47882404 353.69053191 -28.68652344 353.72631836 C-29.38177124 353.73493393 -30.07701904 353.7435495 -30.79333496 353.75242615 C-33.0691554 353.77495031 -35.34373138 353.76837567 -37.61962891 353.75927734 C-39.21190758 353.76451741 -40.80418314 353.77079529 -42.39645386 353.77806091 C-45.72343624 353.78843875 -49.04999016 353.78393931 -52.37695312 353.76928711 C-56.63544766 353.75206481 -60.89259722 353.77564914 -65.15094185 353.81077671 C-68.43501686 353.83275338 -71.71876978 353.83130937 -75.00289536 353.8230114 C-76.57295079 353.82219275 -78.14303008 353.8290398 -79.71301651 353.84378242 C-81.90814981 353.86124421 -84.10086173 353.84667979 -86.29589844 353.82397461 C-87.54275421 353.82301285 -88.78960999 353.82205109 -90.07424927 353.82106018 C-94.24282798 353.0245272 -95.73435256 351.45133248 -98.36181641 348.19287109 C-100.00905606 341.09500915 -94.91800583 333.93094566 -91.36181641 328.19287109 C-90.59973877 327.15323212 -90.59973877 327.15323212 -89.82226562 326.09259033 C-84.01662914 317.81947768 -81.6809972 309.33189421 -79.15087891 299.70068359 C-78.68298773 297.97580641 -78.21343381 296.25137953 -77.74234009 294.52737427 C-76.50806757 289.99356848 -75.29587594 285.45414487 -74.08808899 280.91322327 C-72.9198403 276.53738981 -71.7295813 272.16757977 -70.54052734 267.79736328 C-67.84113292 257.85955993 -65.17441824 247.91313081 -62.51247787 237.96524048 C-61.17614178 232.97355345 -59.83685866 227.98265719 -58.49780273 222.99169922 C-56.82003089 216.73764089 -55.14250213 210.48351786 -53.46620178 204.22906494 C-49.51818306 189.49887425 -45.5618065 174.7709479 -41.60009766 160.04443359 C-41.0425177 157.97158906 -40.48494119 155.89874361 -39.92736816 153.82589722 C-37.79308361 145.89166536 -35.65864362 137.95747534 -33.52386475 130.02337646 C-30.13151102 117.41454953 -26.74333919 104.8046073 -23.36181641 92.19287109 C-23.09274727 91.18945679 -22.82367813 90.18604248 -22.54645538 89.15222168 C-20.86318266 82.87371042 -19.18209145 76.59462048 -17.50358009 70.31483459 C-16.96830121 68.31301442 -16.43250168 66.31133338 -15.8961544 64.30979919 C-15.15378051 61.53880422 -14.41341898 58.76727922 -13.67358398 55.99560547 C-13.45340166 55.17532867 -13.23321934 54.35505188 -13.00636482 53.50991821 C-9.55610699 40.55531042 -9.54905216 30.81970717 -15.61181641 18.56787109 C-17.74392272 13.89045956 -17.84862518 11.14890033 -16.36181641 6.19287109 C-11.56420068 0.58869968 -6.98212838 0.03619279 0 0 Z M35.63818359 145.19287109 C31.39151866 149.61206747 30.22958345 154.10025764 28.77099609 159.87646484 C28.52775604 160.80959 28.28451599 161.74271515 28.03390503 162.70411682 C27.52514528 164.67178519 27.02292404 166.64115435 26.52685547 168.61206055 C25.76523879 171.62224819 24.97264197 174.6230967 24.17724609 177.62451172 C23.68576601 179.5413441 23.19612029 181.45864794 22.70849609 183.37646484 C22.47011017 184.27038437 22.23172424 185.16430389 21.9861145 186.08531189 C20.76415886 191.05810371 20.17504199 194.43793287 22.63818359 199.19287109 C28.21144513 203.55455404 34.62341546 204.91082464 41.63818359 205.19287109 C45.88039216 204.5407014 49.34469128 203.64294919 52.25561523 200.37963867 C55.30497897 195.55655003 52.9178492 189.35469314 51.74853516 184.08886719 C50.8423097 180.15738349 49.87294433 176.24325933 48.88232422 172.33227539 C48.2608643 169.8711863 47.65596082 167.40641259 47.05224609 164.94091797 C46.65739787 163.36189526 46.26159798 161.78311016 45.86474609 160.20458984 C45.68650299 159.47431076 45.50825989 158.74403168 45.32461548 157.99162292 C44.28874445 153.95854949 43.11407661 150.56351752 40.63818359 147.19287109 C38.06718957 145.84597194 38.06718957 145.84597194 35.63818359 145.19287109 Z " fill="#FCE9C7" transform="translate(1114.36181640625,355.80712890625)"/>
<path d="M0 0 C1.31734383 -0.0098568 1.31734383 -0.0098568 2.66130066 -0.01991272 C5.57595907 -0.03966892 8.49056588 -0.05131402 11.40527344 -0.0612793 C12.39991356 -0.06535482 13.39455368 -0.06943035 14.41933441 -0.07362938 C19.68466485 -0.0945009 24.94996915 -0.10879744 30.21533203 -0.11816406 C35.65397426 -0.12922543 41.09220699 -0.16361923 46.5307045 -0.20333576 C50.71204386 -0.22948434 54.89328546 -0.23785439 59.0746994 -0.24144554 C61.07935092 -0.24631674 63.08399792 -0.25794585 65.08856964 -0.27648354 C67.89661554 -0.30083538 70.70359955 -0.29991705 73.51171875 -0.29296875 C74.33792221 -0.30577881 75.16412567 -0.31858887 76.0153656 -0.33178711 C82.26452941 -0.27550893 85.70756948 1.65063089 90.38964844 5.86450195 C92.24008574 9.66817864 92.19354239 13.03636047 91.51464844 17.17700195 C90.3983134 20.36595902 89.11477594 23.40749329 87.70605469 26.4777832 C82.87878527 37.41431817 86.28757486 48.65938849 89.28417969 59.6418457 C89.69164442 61.17473889 90.09792692 62.70794673 90.50312805 64.24143982 C91.59799415 68.37091792 92.7097204 72.49568049 93.82489777 76.61971283 C94.97501045 80.8838198 96.10978346 85.15200615 97.24658203 89.41967773 C99.94802956 99.54674336 102.67524525 109.6667977 105.40556717 119.78610992 C106.77211262 124.85269207 108.13638045 129.91988737 109.50073242 134.98706055 C110.06019379 137.06481991 110.6196573 139.1425787 111.17912292 141.22033691 C111.45726522 142.25332413 111.73540752 143.28631134 112.02197838 144.3506012 C112.86632669 147.48602554 113.71094056 150.62137825 114.55561829 153.75671387 C118.91975587 169.95731072 123.26846133 186.16201061 127.6107769 202.36846828 C127.84250666 203.23332883 128.07423641 204.09818937 128.31298828 204.98925781 C128.54294054 205.84750939 128.7728928 206.70576097 129.00981331 207.59002018 C130.60380358 213.53830313 132.20030752 219.48590724 133.79833984 225.43310547 C134.13020326 226.66825032 134.13020326 226.66825032 134.46877098 227.92834759 C135.34658703 231.19538593 136.22440691 234.46242323 137.10242844 237.72940636 C139.58987521 246.98594586 142.06808467 256.24483267 144.52792454 265.50874901 C146.01954148 271.12570904 147.51780187 276.74086512 149.02142239 282.35462379 C149.8736436 285.53792996 150.72090823 288.72241769 151.56082153 291.90899658 C152.46398922 295.33437517 153.38031599 298.7559745 154.29980469 302.17700195 C154.55403198 303.15522919 154.80825928 304.13345642 155.07019043 305.1413269 C158.04660275 316.09126616 163.52595388 325.20802434 169.93652344 334.47583008 C173.02664013 339.25715928 174.04150876 342.54827732 173.40185547 348.22949219 C172.07915949 351.13294454 170.35957801 351.79399808 167.51464844 353.17700195 C164.22035217 353.56468201 164.22035217 353.56468201 160.43286133 353.58105469 C159.73951187 353.58791794 159.04616241 353.59478119 158.33180237 353.60185242 C156.05009216 353.62008641 153.76907181 353.61628799 151.48730469 353.6105957 C149.89456459 353.61515927 148.30182646 353.62046536 146.70909119 353.6264801 C143.37442007 353.63540457 140.03998851 353.63299588 136.70532227 353.62304688 C132.44032873 353.6115597 128.17616347 353.63176747 123.91127872 353.66096401 C120.62290733 353.67934577 117.33473368 353.67902964 114.04632378 353.67332649 C112.47430701 353.67317351 110.90227664 353.67919892 109.33030891 353.69161797 C107.12829368 353.706564 104.92779904 353.69582671 102.72583008 353.67871094 C101.47516251 353.67854477 100.22449493 353.6783786 98.93592834 353.6782074 C93.59648294 352.89599747 90.54940982 350.422038 87.1574707 346.34082031 C85.2763634 342.7181023 85.08586672 340.60892054 85.22949219 336.5559082 C85.25817383 335.2975415 85.28685547 334.0391748 85.31640625 332.74267578 C85.33916626 332.08796295 85.36192627 331.43325012 85.38537598 330.75869751 C85.75473611 319.58926726 85.80418185 308.9734193 82.51464844 298.17700195 C82.21300781 297.12512695 81.91136719 296.07325195 81.60058594 294.98950195 C79.81458753 289.41370206 78.4713554 286.54255457 73.51464844 283.17700195 C70.8171779 282.35719657 68.30476561 281.7239544 65.55371094 281.1965332 C64.77178375 281.03514359 63.98985657 280.87375397 63.18423462 280.70747375 C60.63020624 280.18403004 58.07261404 279.68081478 55.51464844 279.17700195 C53.7562472 278.81810033 51.99811083 278.45789874 50.24023438 278.09643555 C45.71577763 277.17183685 41.18570447 276.27964151 36.65185547 275.40234375 C34.79144764 275.04009534 32.93207901 274.67247333 31.07373047 274.29980469 C28.33487297 273.75084134 25.59329492 273.21806149 22.85058594 272.6887207 C22.02964447 272.5211174 21.208703 272.3535141 20.36288452 272.18083191 C13.74409915 270.93410524 8.08733555 270.55024429 2.17871094 274.28637695 C-0.7750869 277.49137754 -2.02566826 280.3052054 -3.11035156 284.42700195 C-3.30854492 285.12083984 -3.50673828 285.81467773 -3.7109375 286.52954102 C-4.32988771 288.7389457 -4.9115843 290.95546801 -5.48535156 293.17700195 C-5.77587402 294.27141602 -5.77587402 294.27141602 -6.07226562 295.38793945 C-9.55907022 308.65077654 -10.92125216 320.79771746 -9.62915039 334.50463867 C-9.23344679 339.59436969 -9.57847942 342.76041034 -12.48535156 347.17700195 C-15.60004881 350.51361147 -18.78962568 353.10006239 -23.43234253 353.31071472 C-24.69490875 353.31452652 -25.95747498 353.31833832 -27.25830078 353.32226562 C-28.30248672 353.32730354 -28.30248672 353.32730354 -29.36776733 353.33244324 C-31.67520927 353.34196291 -33.9825787 353.34389693 -36.29003906 353.3449707 C-37.89185618 353.34818286 -39.49367301 353.3515469 -41.0954895 353.35505676 C-44.45640747 353.36105077 -47.81729972 353.36289641 -51.17822266 353.36230469 C-55.48473234 353.36220311 -59.79107696 353.37584907 -64.09754753 353.3930769 C-67.40724444 353.40419687 -70.71690147 353.40622389 -74.02661514 353.40569496 C-75.61423435 353.40687532 -77.20185457 353.41130025 -78.78945541 353.41902733 C-81.01095877 353.4288261 -83.23210415 353.42594963 -85.45361328 353.41992188 C-86.71777069 353.42134689 -87.9819281 353.42277191 -89.28439331 353.42424011 C-92.31219599 353.19037628 -94.00259522 352.87470909 -96.48535156 351.17700195 C-98.26644474 347.6148156 -98.07980922 344.01239704 -97.48535156 340.17700195 C-95.51312958 335.39436365 -92.85855125 331.02361067 -89.77441406 326.8762207 C-85.31874356 320.71691148 -83.24681517 314.71066549 -81.21972656 307.43481445 C-80.91883621 306.37838242 -80.61794586 305.32195038 -80.30793762 304.23350525 C-79.35749539 300.88395158 -78.4199484 297.53100827 -77.48535156 294.17700195 C-77.19578583 293.14388885 -76.90622009 292.11077576 -76.60787964 291.0463562 C-74.43438479 283.28517315 -72.29959864 275.51360645 -70.17285156 267.73950195 C-69.81858884 266.44661205 -69.46427868 265.15373515 -69.10992432 263.86087036 C-61.07772188 234.54429742 -53.22693982 205.17892222 -45.3725605 175.81431866 C-39.52271986 153.94453653 -33.65884188 132.07880603 -27.73925781 110.2277832 C-27.33448715 108.73346173 -27.33448715 108.73346173 -26.92153931 107.20895195 C-24.33755142 97.67055706 -21.75093183 88.13288074 -19.15963459 78.59646893 C-18.22396873 75.15202861 -17.28951805 71.70725935 -16.355299 68.26242638 C-15.71862671 65.91678235 -15.08011916 63.57164317 -14.44154358 61.22651672 C-14.0601298 59.82039095 -13.67881174 58.41423921 -13.29760742 57.00805664 C-12.96965683 55.8017157 -12.64170624 54.59537476 -12.30381775 53.35247803 C-9.01528459 40.59366337 -9.59341096 30.393321 -15.17285156 18.61450195 C-16.62643397 14.8075004 -16.93424302 12.21702507 -16.48535156 8.17700195 C-15.24316406 5.99731445 -15.24316406 5.99731445 -13.61035156 4.30200195 C-13.07667969 3.72708008 -12.54300781 3.1521582 -11.99316406 2.55981445 C-8.48233524 -0.6599612 -4.49604808 0.01449051 0 0 Z M34.56884766 146.61181641 C31.70351338 150.18990854 30.81735326 153.83523094 29.64746094 158.2199707 C29.40422089 159.10300369 29.16098083 159.98603668 28.91036987 160.89582825 C28.40106247 162.76248937 27.89886559 164.63110321 27.40332031 166.50146484 C26.64507479 169.34415832 25.85094914 172.17511061 25.05371094 175.00708008 C24.56190467 176.82744451 24.07225114 178.64839218 23.58496094 180.4699707 C23.34657501 181.30779587 23.10818909 182.14562103 22.86257935 183.00883484 C21.37264045 188.80618774 21.40992034 193.5129989 23.51464844 199.17700195 C27.08910583 203.28100859 32.46756971 203.98301444 37.64746094 204.47387695 C44.86954472 204.90753002 44.86954472 204.90753002 51.26464844 202.05200195 C53.8766282 198.71447226 54.23841537 197.37270177 54.51464844 193.17700195 C54.03316501 189.84452077 53.22058427 186.61923964 52.38183594 183.3605957 C52.14812286 182.42651382 51.91440979 181.49243195 51.6736145 180.53004456 C51.17680372 178.56097441 50.67381013 176.59345519 50.16503906 174.62744141 C49.39265789 171.6261958 48.65191179 168.61830034 47.91308594 165.60864258 C47.42540659 163.69214145 46.93588418 161.77610818 46.44433594 159.8605957 C46.22639374 158.96465195 46.00845154 158.06870819 45.78390503 157.14561462 C44.36085819 151.77981387 42.94892389 148.61775498 38.51464844 145.17700195 C36.37999531 144.97917365 36.37999531 144.97917365 34.56884766 146.61181641 Z " fill="#FCE9C7" transform="translate(3604.4853515625,355.822998046875)"/>
<path d="M0 0 C5.44465328 1.13406168 10.59309781 0.82407001 16.1171875 0.41796875 C20.90918874 0.88612255 22.3277189 2.38735457 25.67578125 5.765625 C27.07569778 8.56545807 26.82630951 10.89981242 26.8527832 14.03198242 C26.86561844 15.3506279 26.87845367 16.66927338 26.89167786 18.02787781 C26.89984703 19.47561264 26.90729042 20.92335171 26.9140625 22.37109375 C26.91813803 23.09970423 26.92221355 23.8283147 26.92641258 24.57900429 C26.94728053 28.43849021 26.96157678 32.29794055 26.97094727 36.1574707 C26.98198894 40.13429564 27.01636 44.11055751 27.05611897 48.08718395 C27.08233781 51.15252177 27.09064392 54.21772681 27.09422874 57.28316689 C27.09908435 58.74832253 27.11066909 60.21347264 27.12926674 61.6785183 C27.29992247 76.0181322 27.29992247 76.0181322 22.67578125 81.765625 C18.49756549 83.85473288 14.1865059 83.59682661 9.67578125 82.765625 C5.66729334 80.95918265 2.05039959 78.46148985 -1.63671875 76.0859375 C-6.60304384 72.89366565 -11.74320397 70.67270543 -17.32421875 68.765625 C-18.4534375 68.37375 -19.58265625 67.981875 -20.74609375 67.578125 C-37.6162394 62.53808149 -56.78557094 62.63422386 -73.32421875 68.765625 C-74.34 69.11625 -75.35578125 69.466875 -76.40234375 69.828125 C-105.79024895 80.90628822 -128.20668834 107.46480134 -141.13232422 135.30419922 C-162.40241479 182.9981774 -164.70739275 238.77301254 -146.19018555 287.7277832 C-133.51734226 319.94819196 -113.09243456 349.44525308 -80.73193359 364.18457031 C-59.914598 373.12314062 -36.86362421 374.30737253 -15.44921875 366.515625 C-7.71890958 363.24776761 -0.09082935 359.42888502 6.76953125 354.578125 C10.86718013 352.02260204 13.99422437 352.04738245 18.67578125 352.765625 C22.43152648 354.39855771 24.56350051 356.28047173 26.67578125 359.765625 C27.0634613 362.74984741 27.0634613 362.74984741 27.07983398 366.27490234 C27.09012886 367.24155571 27.09012886 367.24155571 27.10063171 368.22773743 C27.11889355 370.35257163 27.1150628 372.47666684 27.109375 374.6015625 C27.11393787 376.08363077 27.11924376 377.56569692 27.1252594 379.04776001 C27.1341898 382.15302121 27.13176924 385.25802524 27.12182617 388.36328125 C27.11034949 392.33350347 27.13052724 396.30283453 27.15974331 400.27293968 C27.17813485 403.33399046 27.17780683 406.39482898 27.17210579 409.45592117 C27.17195286 410.91908644 27.1779735 412.38226635 27.19039726 413.84537888 C27.20535887 415.89666489 27.1945949 417.94632183 27.17749023 419.99755859 C27.17724098 421.74484756 27.17724098 421.74484756 27.17698669 423.5274353 C26.43457288 428.32402478 24.05577248 431.38563377 20.67578125 434.765625 C18.38331131 434.7805889 16.09004813 434.70018853 13.80078125 434.578125 C6.17430339 434.35528762 -0.56514288 435.73904419 -7.88037109 437.81176758 C-20.16543646 441.26972013 -32.25484358 442.14399752 -44.94921875 442.078125 C-45.69778137 442.07596985 -46.44634399 442.0738147 -47.21759033 442.07159424 C-91.27077873 441.86835678 -129.81858986 424.15643933 -161.32421875 393.765625 C-162.30261719 392.84716797 -162.30261719 392.84716797 -163.30078125 391.91015625 C-168.46690681 386.94454241 -172.87225011 381.36719738 -177.32421875 375.765625 C-178.49984375 374.33283203 -178.49984375 374.33283203 -179.69921875 372.87109375 C-214.346105 329.61800979 -229.53427203 273.34867152 -229.57421875 218.640625 C-229.57489349 217.80480896 -229.57556824 216.96899292 -229.57626343 216.10784912 C-229.55762753 201.48929348 -228.71473871 187.20934782 -226.32421875 172.765625 C-226.16856445 171.79657227 -226.01291016 170.82751953 -225.85253906 169.82910156 C-218.07016682 123.21253649 -196.656708 80.13966643 -164.32421875 45.765625 C-163.78909668 45.19650391 -163.25397461 44.62738281 -162.70263672 44.04101562 C-153.96243408 34.82239678 -144.95870051 26.73442303 -134.32421875 19.765625 C-133.66728027 19.33411133 -133.0103418 18.90259766 -132.33349609 18.45800781 C-93.30939629 -6.73155553 -44.36755526 -12.99508722 0 0 Z " fill="#FCE9C7" transform="translate(2357.32421875,362.234375)"/>
<path d="M0 0 C2.33328777 2.45816796 3.28641252 4.39817657 3.69126892 7.74744606 C3.29030188 12.07717962 2.0949973 15.33962542 0.53108883 19.36205733 C-5.8980218 36.33157138 -5.83070676 52.61221143 -5.7215786 70.47178316 C-5.70320646 74.93545041 -5.73154845 79.39888481 -5.75341797 83.86250305 C-5.78871232 92.57059568 -5.78143412 101.27813208 -5.75811684 109.98624517 C-5.73994085 117.07169033 -5.73764608 124.15698122 -5.74630737 131.24244308 C-5.74753324 132.25652351 -5.7487591 133.27060393 -5.75002211 134.31541406 C-5.75258028 136.37641694 -5.755174 138.43741976 -5.75780284 140.49842255 C-5.78053289 159.75581138 -5.75451482 179.01289392 -5.71139991 198.27023248 C-5.67565432 214.74541222 -5.68188467 231.22014086 -5.71875 247.6953125 C-5.76168982 266.89378366 -5.77834774 286.09198755 -5.75385189 305.29050004 C-5.75130387 307.3426878 -5.7487889 309.39487561 -5.74630737 311.44706345 C-5.74445607 312.96108187 -5.74445607 312.96108187 -5.74256736 314.50568653 C-5.7356989 321.57251778 -5.74723403 328.63917754 -5.7661438 335.70598221 C-5.78872304 344.33249997 -5.78221502 352.95843643 -5.73989785 361.58488871 C-5.71906246 365.97496424 -5.71030716 370.36407536 -5.73709106 374.75414085 C-5.8356357 392.294798 -5.48595754 407.75283133 1.61061096 424.16713524 C3.47591223 428.60350308 3.75941275 431.92131644 3.32421875 436.7109375 C1.68062546 440.4090224 -0.21795291 442.61528396 -3.67578125 444.7109375 C-7.13679144 445.84552627 -10.43643628 445.85662131 -14.06152344 445.88793945 C-15.35676941 445.90077469 -16.65201538 445.91360992 -17.98651123 445.92683411 C-19.39855566 445.93500304 -20.81060444 445.94244648 -22.22265625 445.94921875 C-22.93715187 445.95329428 -23.65164749 445.9573698 -24.38779449 445.96156883 C-28.17063606 445.98239668 -31.95344171 445.99671183 -35.73632812 446.00610352 C-39.62780579 446.01715367 -43.51870942 446.05154612 -47.40998459 446.09127522 C-50.41616827 446.1175188 -53.4222168 446.12580221 -56.42850494 446.12938499 C-57.86213299 446.134232 -59.29575576 446.14579183 -60.72927094 446.16442299 C-68.73759041 446.26202685 -74.92689083 446.29320423 -81.67578125 441.7109375 C-84.78992282 437.03972515 -84.43871888 433.19470238 -83.67578125 427.7109375 C-83.19874312 426.4461912 -82.67729005 425.19765653 -82.12200069 423.96525955 C-74.9314862 407.88701121 -75.66344635 391.44435988 -75.74604952 374.20690703 C-75.75997605 369.69269943 -75.733263 365.17869007 -75.71211243 360.66453552 C-75.67732118 351.84652342 -75.68007858 343.028918 -75.69697589 334.21086851 C-75.71010955 327.03521819 -75.70979424 319.85968353 -75.70013237 312.68402863 C-75.69877102 311.65845803 -75.69740966 310.63288744 -75.69600705 309.57623895 C-75.69319635 307.49204614 -75.69036114 305.40785338 -75.68750172 303.32366064 C-75.66242941 283.82594496 -75.68085584 264.32845549 -75.7138884 244.83076385 C-75.74105629 228.14891084 -75.72862936 211.4674643 -75.68774414 194.78564453 C-75.64013719 175.35868089 -75.61910035 155.93196755 -75.63838094 136.50494695 C-75.64035888 134.42766781 -75.64229662 132.35038864 -75.64419365 130.27310944 C-75.64513287 129.25137315 -75.64607208 128.22963687 -75.64703976 127.17693888 C-75.65176815 120.0229639 -75.63771099 112.8691717 -75.61598396 105.71523285 C-75.58988454 96.97774794 -75.59270687 88.24082237 -75.63117785 79.50337449 C-75.65003733 75.05649631 -75.65680204 70.61057896 -75.62792969 66.16373253 C-75.51942206 48.14929442 -76.02779399 32.39450932 -83.05927181 15.4538002 C-84.9260856 10.71005763 -84.8743396 7.6562276 -83.67578125 2.7109375 C-81.50197212 -0.69469681 -80.52322176 -2.00658233 -76.67578125 -3.2890625 C-74.86815153 -3.40512735 -73.05672914 -3.46562213 -71.24560547 -3.49438477 C-70.13369843 -3.51432999 -69.02179138 -3.53427521 -67.87619019 -3.55482483 C-66.07155807 -3.57989357 -66.07155807 -3.57989357 -64.23046875 -3.60546875 C-62.37109177 -3.6366404 -62.37109177 -3.6366404 -60.47415161 -3.66844177 C-57.1732589 -3.72281219 -53.8723363 -3.7730019 -50.5713501 -3.82128906 C-47.24151291 -3.87117878 -43.91178447 -3.92721332 -40.58203125 -3.98242188 C-5.90682144 -4.5437088 -5.90682144 -4.5437088 0 0 Z " fill="#FCE9C7" transform="translate(3455.67578125,359.2890625)"/>
<path d="M0 0 C1.03936707 -0.0098568 1.03936707 -0.0098568 2.09973145 -0.01991272 C4.39754339 -0.03965523 6.69528989 -0.05131156 8.99316406 -0.0612793 C9.7781855 -0.06535482 10.56320694 -0.06943035 11.37201691 -0.07362938 C15.52860756 -0.09449614 19.68516516 -0.1087941 23.84179688 -0.11816406 C28.13034004 -0.12921805 32.41836282 -0.16360404 36.70672226 -0.20333576 C40.00792386 -0.22951544 43.30900188 -0.23785716 46.61029816 -0.24144554 C48.19071204 -0.24630959 49.77112047 -0.2579185 51.3514328 -0.27648354 C53.5680374 -0.30090072 55.78330135 -0.2999059 58 -0.29296875 C59.88957428 -0.30176811 59.88957428 -0.30176811 61.81732178 -0.31074524 C65.92304063 0.27114402 68.05456077 1.58835052 71.25878906 4.17700195 C74.44267644 8.95283301 73.9907019 13.59232246 73.25878906 19.17700195 C72.05850382 23.22834258 70.38343544 27.07145985 68.66894531 30.92700195 C66.62494976 35.63781719 66.13169421 39.25125665 66.11339474 44.39619827 C66.1064701 45.68170145 66.09954546 46.96720463 66.09241098 48.29166245 C66.08973641 49.72148002 66.08717052 51.15129779 66.08470154 52.58111572 C66.07853843 54.09776594 66.07196227 55.61441452 66.06500775 57.13106132 C66.0472095 61.30566594 66.03576329 65.48026754 66.02545106 69.6548965 C66.01581291 73.23450689 66.00250174 76.81409989 65.98918211 80.39369819 C65.94157868 93.2224816 65.90892713 106.05128976 65.87988281 118.88012695 C65.87757523 119.89361784 65.87526765 120.90710873 65.87289014 121.95131147 C65.82741886 142.09393112 65.78892162 162.23656179 65.7621603 182.37921524 C65.75617156 186.80904403 65.75008589 191.23887266 65.74389648 195.66870117 C65.74159701 197.32014211 65.74159701 197.32014211 65.73925108 199.00494549 C65.71359202 216.80064493 65.65676296 234.59610608 65.58743118 252.39168325 C65.51675465 270.68456264 65.47669432 288.97731937 65.46541077 307.27033305 C65.45827655 317.5317567 65.43775856 327.79276734 65.38238335 338.05405426 C65.33520338 346.80282515 65.31576555 355.5511208 65.33126485 364.30001423 C65.33831585 368.75494423 65.33300099 373.20885944 65.29168701 377.66362572 C65.13285235 395.67902126 65.57128976 411.40523804 72.63893223 428.33895493 C74.53187966 433.15987163 74.58152352 437.1810848 73.25878906 442.17700195 C71.75878906 445.11450195 71.75878906 445.11450195 69.25878906 447.17700195 C61.47356523 449.47835501 53.91948592 449.48340262 45.84472656 449.4777832 C44.46188226 449.4816791 43.07903913 449.48601558 41.69619751 449.49076843 C38.81337584 449.49818673 35.93067676 449.49797014 33.04785156 449.49267578 C29.36835285 449.48686621 25.68935509 449.50386879 22.00993919 449.52702045 C19.15991321 449.54180043 16.31000701 449.54262409 13.45994949 449.53951073 C11.44873078 449.54026758 9.43753052 449.55409199 7.42636108 449.56819153 C-5.66260995 449.5020013 -5.66260995 449.5020013 -11.35831547 444.85868925 C-14.09631634 441.52910912 -13.93027406 437.33456685 -13.74121094 433.17700195 C-12.78645889 429.74208948 -11.30384708 426.58330761 -9.8684082 423.32566833 C-3.95438933 408.05526244 -4.59801066 392.51688186 -4.69541359 376.40931761 C-4.71375283 371.90946745 -4.68545913 367.40985081 -4.66357422 362.91004944 C-4.62824335 354.12648475 -4.63557552 345.34347093 -4.65887535 336.55988581 C-4.6770401 329.41242618 -4.67935085 322.26511951 -4.67068481 315.11764336 C-4.66945895 314.09525459 -4.66823309 313.07286583 -4.66697007 312.01949559 C-4.66441193 309.94166438 -4.66181821 307.86383321 -4.65918934 305.78600209 C-4.63644766 286.36120347 -4.66249403 266.93670826 -4.70559227 247.51195943 C-4.74132267 230.89437714 -4.7351223 214.27724218 -4.69824219 197.65966797 C-4.65529503 178.29969309 -4.63864991 158.93998332 -4.6631403 139.57996744 C-4.66568833 137.51003711 -4.6682033 135.44010673 -4.67068481 133.37017632 C-4.67253612 131.8430455 -4.67253612 131.8430455 -4.67442483 130.28506355 C-4.68129231 123.15811208 -4.66975994 116.0313307 -4.65084839 108.90440559 C-4.62826026 100.20174645 -4.63479474 91.49966345 -4.67709434 82.79706914 C-4.69792051 78.36840649 -4.70670158 73.94069938 -4.67990112 69.51204681 C-4.57985955 51.55870882 -5.10423522 35.73903991 -12.02760315 18.82710934 C-13.70476751 14.6725577 -14.20347652 11.63351582 -13.74121094 7.17700195 C-10.5001549 0.96703962 -6.56353702 0.05142148 0 0 Z " fill="#FCE9C7" transform="translate(1999.7412109375,355.822998046875)"/>
<path d="M0 0 C0.96655683 -0.00569124 1.93311366 -0.01138248 2.92896008 -0.01724619 C3.9932394 -0.01842606 5.05751872 -0.01960594 6.15404892 -0.02082157 C7.8472014 -0.0284533 7.8472014 -0.0284533 9.57455897 -0.03623921 C13.37691292 -0.05200171 17.17924782 -0.06049874 20.9816246 -0.06893253 C23.00751135 -0.07565061 25.03339409 -0.08315252 27.05927762 -0.09077286 C35.9223884 -0.12409452 44.78551076 -0.14561664 53.64866364 -0.16397271 C55.95625759 -0.16876783 58.26385106 -0.17375113 60.57144451 -0.17877793 C74.89997117 -0.20974658 89.22850187 -0.23643289 103.55705261 -0.25319672 C106.87582278 -0.25714624 110.19459287 -0.26114923 113.51336288 -0.2652216 C114.3382305 -0.26622996 115.16309811 -0.26723832 116.01296172 -0.26827724 C129.37767729 -0.28528707 142.74220781 -0.32640022 156.10683301 -0.37724458 C169.82644179 -0.4290104 183.54595537 -0.45813748 197.265661 -0.4653936 C204.96947822 -0.4700569 212.67299225 -0.48481893 220.3767128 -0.5251379 C226.93705305 -0.5594311 233.49703541 -0.57338025 240.05746016 -0.56071376 C243.40454872 -0.55488486 246.7502675 -0.56203251 250.09734535 -0.5888834 C253.72779775 -0.61645322 257.35634619 -0.60710328 260.98681259 -0.58844852 C262.56984723 -0.61364092 262.56984723 -0.61364092 264.18486238 -0.63934225 C270.30345994 -0.56066381 273.67983004 0.31487468 278.09407878 4.65759796 C281.04164078 8.20863162 280.52220313 12.04186042 280.56267929 16.4366827 C280.57075104 17.26307247 280.57882278 18.08946224 280.58713913 18.94089413 C280.60098175 20.69272418 280.61170311 22.44458122 280.61956406 24.19644833 C280.63674221 26.86559466 280.68062093 29.53349101 280.72478867 32.2023077 C280.73491886 33.9054236 280.74343394 35.60855003 280.75017929 37.3116827 C280.76768738 38.10564449 280.78519547 38.89960629 280.8032341 39.71762753 C280.78290445 44.95630972 279.99641852 48.12531321 276.32439804 52.1398077 C270.29687675 55.48668239 264.99598999 55.56476979 258.19681931 55.52075863 C256.52810857 55.52777859 256.52810857 55.52777859 254.82568651 55.53494036 C251.1023977 55.54689503 247.37947662 55.53743096 243.65618515 55.52799129 C240.98510795 55.53205676 238.31405599 55.53729005 235.6429863 55.54392147 C229.14409425 55.55724862 222.64530625 55.55438576 216.14641016 55.54568355 C210.8643923 55.53890397 205.58240357 55.53799146 200.30038261 55.541255 C199.54816512 55.5417147 198.79594763 55.5421744 198.02093567 55.54264802 C196.49275679 55.54360721 194.96457792 55.54457985 193.43639905 55.5455658 C179.11315947 55.55411656 164.78997754 55.5442902 150.46674741 55.5281647 C138.17895302 55.51475906 125.89124364 55.51709223 113.60345078 55.53092098 C99.3293531 55.54697764 85.05530591 55.55329549 70.78120047 55.54408419 C69.25899955 55.54312855 67.73679863 55.54218544 66.2145977 55.541255 C65.09120449 55.54056076 65.09120449 55.54056076 63.94511647 55.53985249 C58.66943617 55.53726306 53.39378791 55.54163252 48.11811256 55.54869366 C41.68891113 55.55710969 35.25981957 55.55482628 28.83063071 55.53885143 C25.5508601 55.53097043 22.27131038 55.52949069 18.99153519 55.53779888 C15.43583752 55.54597665 11.88065767 55.53573766 8.32499313 55.52075863 C7.28890708 55.52745079 6.25282103 55.53414296 5.18533844 55.54103792 C-1.47399298 55.48649195 -5.9255139 54.6356353 -11.01520157 50.01651669 C-13.3295276 46.00685581 -13.26922691 42.66909553 -13.24200821 38.11246395 C-13.24820679 37.24592693 -13.25440536 36.37938992 -13.26079178 35.4865942 C-13.26787839 33.65852637 -13.26473616 31.83039385 -13.25201797 30.00235653 C-13.23816144 27.21427519 -13.27222577 24.42955844 -13.31036758 21.64176083 C-13.31131897 19.86116105 -13.30945892 18.0805571 -13.30450821 16.29996395 C-13.31776642 15.47166576 -13.33102463 14.64336758 -13.3446846 13.78996944 C-13.27846034 9.64609769 -12.94271278 6.93574922 -10.32379532 3.62979794 C-6.87241528 0.38460341 -4.55503558 0.01564245 0 0 Z " fill="#FCE9C7" transform="translate(2697.6756019592285,749.8601922988892)"/>
<path d="M0 0 C0.89264787 -0.00384115 1.78529574 -0.00768229 2.70499355 -0.01163983 C3.69184003 -0.01077335 4.67868651 -0.00990687 5.69543743 -0.00901413 C6.73900786 -0.01198525 7.78257828 -0.01495637 8.85777205 -0.01801753 C12.37769905 -0.02673486 15.89759215 -0.02821533 19.41752911 -0.02970505 C21.93184768 -0.03433107 24.44616555 -0.03935543 26.9604826 -0.04475021 C33.80758922 -0.05789682 40.65468463 -0.06435996 47.50180173 -0.06876087 C51.77569564 -0.07152162 56.04958728 -0.07575867 60.32347965 -0.08026505 C72.15224885 -0.09245932 83.98101622 -0.10275818 95.80979156 -0.10614014 C96.56717199 -0.1063597 97.32455242 -0.10657927 98.10488377 -0.10680549 C99.24370355 -0.10713291 99.24370355 -0.10713291 100.4055298 -0.10746694 C101.94403478 -0.10791041 103.48253975 -0.10835697 105.02104473 -0.10880661 C106.16577697 -0.10913875 106.16577697 -0.10913875 107.33363511 -0.10947761 C119.70062247 -0.11342596 132.06755092 -0.13088038 144.43451551 -0.15416613 C157.1257746 -0.17786996 169.81700411 -0.19034155 182.5082857 -0.19150805 C189.63627243 -0.19242539 196.76418241 -0.19819221 203.89214802 -0.21632767 C210.59551526 -0.23332246 217.29871182 -0.23498853 224.00210285 -0.22618866 C226.46560843 -0.22541557 228.92912169 -0.22979655 231.39260769 -0.23964691 C234.7496675 -0.25228539 238.10620413 -0.24653348 241.4632597 -0.23606491 C242.44341401 -0.24412132 243.42356833 -0.25217772 244.43342429 -0.26047826 C249.33891693 -0.22457879 252.83780651 -0.15402005 256.76982403 3.13142776 C259.85856982 7.74809451 260.21280055 11.97115584 260.16826153 17.38142776 C260.17113171 18.15776566 260.17400188 18.93410355 260.17695904 19.73396683 C260.17899143 21.36776335 260.1735195 23.00158467 260.16093731 24.63533401 C260.14487086 27.12417315 260.16081306 29.61138863 260.17998028 32.10017776 C260.1779977 33.69393132 260.17415372 35.28768387 260.16826153 36.88142776 C260.17433422 37.61909378 260.18040691 38.3567598 260.18666363 39.11677933 C260.12270445 43.85752362 259.25039868 47.09451827 256.76982403 51.13142776 C253.02099484 54.63839701 249.40127787 55.25457708 244.39284325 55.26285553 C243.51834705 55.26669667 242.64385085 55.27053782 241.74285477 55.27449536 C240.7865439 55.27362888 239.83023303 55.2727624 238.84494305 55.27186966 C237.3158928 55.27632634 237.3158928 55.27632634 235.75595266 55.28087306 C232.32982275 55.28956576 228.90372777 55.29106879 225.4775877 55.29256058 C223.02533169 55.29718831 220.5730764 55.30221291 218.12082195 55.30760574 C211.45137869 55.32073523 204.78194912 55.32721234 198.11249614 55.3316164 C193.94745713 55.33438006 189.78242044 55.33861762 185.617383 55.34312057 C174.08363236 55.35531173 162.54988358 55.3656116 151.01612663 55.36899567 C149.90912454 55.36932502 149.90912454 55.36932502 148.77975877 55.36966102 C148.04000239 55.3698793 147.30024601 55.37009757 146.53807276 55.37032247 C145.03906993 55.37076593 143.5400671 55.37121249 142.04106426 55.37166214 C140.92573099 55.37199428 140.92573099 55.37199428 139.78786574 55.37233314 C127.73921573 55.37628129 115.69062621 55.3937365 103.64199957 55.41702166 C91.26933094 55.44073992 78.89669267 55.45319772 66.52400094 55.45436358 C59.57818515 55.45528004 52.63244817 55.46102488 45.68665409 55.4791832 C39.15399169 55.49620144 32.62145248 55.49783326 26.08876514 55.48904419 C23.69060014 55.4882723 21.29242718 55.49263638 18.89428234 55.50250244 C15.62122767 55.51517866 12.3487067 55.50936828 9.07565594 55.49892044 C8.12603723 55.50697685 7.17641853 55.51503325 6.1980235 55.52333379 C0.62275287 55.48169335 -3.30057618 54.79864318 -8.23017597 52.13142776 C-11.97283984 47.96690018 -11.69763508 43.42570686 -11.69892597 38.10408401 C-11.7065395 37.237547 -11.71415302 36.37100998 -11.72199726 35.47821426 C-11.73277621 33.65016427 -11.73566034 31.82205281 -11.73115253 29.99397659 C-11.7301802 27.20606104 -11.77182418 24.42089941 -11.81611347 21.63338089 C-11.82132103 19.85278764 -11.82400866 18.07218488 -11.82392597 16.29158401 C-11.84032124 15.46328583 -11.8567165 14.63498764 -11.87360859 13.78158951 C-11.82393206 9.59497078 -11.49887624 6.93581201 -8.8180666 3.621418 C-5.60526254 0.53015493 -4.29844501 0.00692072 0 0 Z " fill="#FCE9C7" transform="translate(3518.230175971985,749.8685722351074)"/>
<path d="M0 0 C1.33879481 -0.00967334 1.33879481 -0.00967334 2.70463598 -0.0195421 C3.68108371 -0.01644489 4.65753144 -0.01334769 5.6635685 -0.01015663 C6.70405865 -0.01468774 7.74454881 -0.01921886 8.81656897 -0.02388728 C12.31416702 -0.03657971 15.81161032 -0.03490777 19.3092289 -0.03325844 C21.81236917 -0.03924064 24.31550759 -0.04604546 26.81864357 -0.05361366 C32.91887641 -0.06947224 39.01904806 -0.07572339 45.11929582 -0.07683842 C50.07767902 -0.07778867 55.03604947 -0.08189784 59.99442863 -0.08823967 C74.05147828 -0.10585299 88.10849738 -0.11507837 102.16555814 -0.11357872 C103.30232702 -0.11345885 103.30232702 -0.11345885 104.46206093 -0.11333656 C105.60021728 -0.11321392 105.60021728 -0.11321392 106.76136668 -0.1130888 C119.05967819 -0.11227581 131.35786726 -0.13141638 143.65614335 -0.1596133 C156.28306626 -0.18833535 168.90992944 -0.20215398 181.53688586 -0.20042574 C188.62632965 -0.19976162 195.71564506 -0.20526371 202.80505943 -0.22678185 C209.47156827 -0.24688665 216.13776077 -0.24632695 222.8042984 -0.23174858 C225.25287267 -0.22965247 227.70146369 -0.23440883 230.15000916 -0.2464695 C233.48924197 -0.26185374 236.82753055 -0.2526581 240.16674232 -0.23720741 C241.62472176 -0.2526381 241.62472176 -0.2526381 243.11215532 -0.26838052 C248.74913988 -0.21062842 252.11892937 0.40549112 256.54213905 4.25726891 C259.15075061 8.17018624 258.88423778 11.5441058 258.9132328 16.08930016 C258.92226128 16.95866707 258.93128975 17.82803398 258.94059181 18.72374535 C258.95509914 20.56374225 258.96398225 22.40379079 258.96767616 24.24384117 C258.97955257 27.04934057 259.02871394 29.85262573 259.07924843 32.65765953 C259.08871532 34.44736236 259.09594908 36.23707868 259.1007328 38.02680016 C259.12026512 38.86137245 259.13979744 39.69594475 259.15992165 40.55580711 C259.12860117 44.63050549 258.85531064 47.42395054 256.31972694 50.7091732 C250.8019081 55.77109421 245.64184253 55.54628786 238.49700356 55.51796532 C237.4767823 55.52179086 236.45656105 55.52561641 235.405424 55.52955788 C231.98235623 55.53988742 228.55945621 55.53589576 225.13637733 55.53192711 C222.683973 55.53627361 220.23157003 55.54145655 217.77916908 55.54741478 C211.80640321 55.55942984 205.83370342 55.56195531 199.86093153 55.55961452 C195.00555619 55.55783122 190.15019449 55.55958125 185.29482079 55.56383896 C184.60367899 55.56443415 183.91253719 55.56502934 183.20045169 55.56564256 C181.79636948 55.56685432 180.39228727 55.56806845 178.98820506 55.56928494 C165.82094697 55.58016106 152.65371449 55.57799773 139.48645495 55.57190009 C127.44433069 55.56673165 115.40228734 55.57798432 103.36017908 55.59699831 C90.9919936 55.61637727 78.6238464 55.62463256 66.25564563 55.62087506 C59.31320463 55.618963 52.37083247 55.62145096 45.42840385 55.6355896 C38.89982275 55.64875094 32.37137686 55.64624255 25.84278679 55.63317871 C23.44623701 55.63080902 21.0496759 55.63356162 18.65313911 55.64180183 C15.38231771 55.65223746 12.11204345 55.6441937 8.84124184 55.63149071 C7.41783696 55.64255213 7.41783696 55.64255213 5.96567643 55.65383703 C-0.32782793 55.60239745 -5.26825199 54.80895607 -10.33286095 50.75726891 C-13.18836884 46.94992505 -12.6541803 42.38955984 -12.6961422 37.86273766 C-12.70421394 37.03776283 -12.71228569 36.21278801 -12.72060204 35.36281395 C-12.73442668 33.61696019 -12.74515608 31.87107958 -12.75302696 30.12518883 C-12.77023067 27.46491423 -12.81412868 24.80588583 -12.85825157 22.14594078 C-12.86837999 20.44738218 -12.87689563 18.74881305 -12.8836422 17.05023766 C-12.90115028 16.25941292 -12.91865837 15.46858818 -12.93669701 14.65379906 C-12.91626965 9.41247627 -12.00443661 6.36540843 -8.45786095 2.25726891 C-5.55582781 0.4713124 -3.38478125 0.00619419 0 0 Z " fill="#FCE9C7" transform="translate(1028.4578609466553,749.7427310943604)"/>
</svg>
